<?xml version="1.0" encoding="UTF-8"?>
<svg width="900" height="600" xmlns="http://www.w3.org/2000/svg">
  <defs>
    <linearGradient id="grad1" x1="0%" y1="0%" x2="100%" y2="0%">
      <stop offset="0%" style="stop-color:#4F46E5;stop-opacity:1" />
      <stop offset="100%" style="stop-color:#7C3AED;stop-opacity:1" />
    </linearGradient>
  </defs>
  <g>
    <path d="m 400,250 c 0,0 50,-50 150,-50 100,0 150,50 150,50 0,0 -50,50 -150,50 -100,0 -150,-50 -150,-50 z" fill="url(#grad1)" opacity="0.2"/>
    <path d="m 200,300 c 0,0 100,-100 300,-100 200,0 300,100 300,100 0,0 -100,100 -300,100 -200,0 -300,-100 -300,-100 z" fill="none" stroke="url(#grad1)" stroke-width="2"/>
    <circle cx="500" cy="300" r="20" fill="url(#grad1)"/>
  </g>
</svg>
